<svg width="420" height="120" viewBox="0 0 420 120" xmlns="http://www.w3.org/2000/svg">
  <defs>
    <linearGradient id="wmlBgGrad" x1="0%" y1="0%" x2="100%" y2="100%">
      <stop offset="0%" stop-color="#1F2937"/>
      <stop offset="100%" stop-color="#111827"/>
    </linearGradient>
    <radialGradient id="wmlCoreGrad" cx="50%" cy="50%" r="50%">
      <stop offset="0%" stop-color="#FFFFFF"/>
      <stop offset="100%" stop-color="#D1D5DB"/>
    </radialGradient>
  </defs>

  <!-- mark (keeps its own dark tile so it still pops on a light page) -->
  <g transform="translate(10,10)">
    <rect x="3" y="3" width="94" height="94" rx="22" fill="url(#wmlBgGrad)" stroke="#374151" stroke-width="1.5"/>

    <g fill="none" stroke-width="2.2" stroke-linecap="round">
      <path d="M50,20 L80,50" stroke="#6366F1" opacity="0.9"/>
      <path d="M80,50 L50,80" stroke="#10B981" opacity="0.9"/>
      <path d="M50,80 L20,50" stroke="#F59E0B" opacity="0.9"/>
      <path d="M20,50 L50,20" stroke="#A78BFA" opacity="0.9"/>
    </g>
    <g fill="none" stroke-width="1.3" stroke-linecap="round" opacity="0.55">
      <path d="M50,20 L50,80" stroke="#6366F1"/>
      <path d="M20,50 L80,50" stroke="#10B981"/>
      <path d="M30,30 L70,70" stroke="#F59E0B"/>
      <path d="M70,30 L30,70" stroke="#A78BFA"/>
    </g>

    <circle cx="50" cy="20" r="6" fill="#6366F1"/>
    <circle cx="80" cy="50" r="6" fill="#10B981"/>
    <circle cx="50" cy="80" r="6" fill="#F59E0B"/>
    <circle cx="20" cy="50" r="6" fill="#A78BFA"/>

    <circle cx="50" cy="50" r="10" fill="url(#wmlCoreGrad)" stroke="#111827" stroke-width="2"/>
    <circle cx="50" cy="50" r="3.6" fill="#6366F1"/>
  </g>

  <!-- wordmark — dark text tuned for the dashboard's light theme (text:#1C1917, muted:#78716C) -->
  <text x="128" y="68" font-family="'Segoe UI', Roboto, Helvetica, Arial, sans-serif" font-size="44" font-weight="700" fill="#1C1917">Lattice</text>
  <text x="130" y="92" font-family="'Segoe UI', Roboto, Helvetica, Arial, sans-serif" font-size="14" font-weight="500" letter-spacing="2.5" fill="#78716C">EVALUATION DASHBOARD</text>
</svg>
